# AST/ASF file generated using VICON BodyLanguage
# -----------------------------------------------
:version 1.10
:name VICON
:units
  mass 1.0
  length 0.45
  angle deg
:documentation
   .ast/.asf automatically generated from VICON data using
   VICON BodyBuilder and BodyLanguage model FoxedUp or BRILLIANT.MOD
:root
   order TX TY TZ RX RY RZ
   axis XYZ
   position 0 0 0  
   orientation 0 0 0 
:bonedata
  begin
     id 1 
     name lhipjoint
     direction 0.671379 -0.66392 0.329334 
     length 2.38647 
     axis 0 0 0  XYZ
  end
  begin
     id 2 
     name lfemur
     direction 0.34202 -0.939693 0  
     length 6.48179  
     axis 0 0 20  XYZ
    dof rx ry rz
    limits (-160.0 20.0)
           (-70.0 70.0)
           (-60.0 70.0)
  end
  begin
     id 3 
     name ltibia
     direction 0.34202 -0.939693 0   
     length 6.86524   
     axis 0 0 20   XYZ
    dof rx
    limits (-10.0 170.0)
  end
  begin
     id 4 
     name lfoot
     direction 0.204886 -0.562919 0.800715   
     length 1.73031   
     axis -90 7.62852e-016 20   XYZ
    dof rx rz
    limits (-45.0 90.0)
           (-70.0 20.0)
  end
  begin
     id 5 
     name ltoes
     direction 1.53548e-011 -4.21841e-011 1   
     length 0.828161   
     axis -90 7.62852e-016 20   XYZ
    dof rx
    limits (-90.0 20.0)
  end
  begin
     id 6 
     name rhipjoint
     direction -0.662732 -0.670855 0.332775   
     length 2.3618  
     axis 0 0 0  XYZ 
  end
  begin
     id 7 
     name rfemur
     direction -0.34202 -0.939693 0   
     length 6.3025   
     axis 0 0 -20   XYZ
    dof rx ry rz
    limits (-160.0 20.0)
           (-70.0 70.0)
           (-70.0 60.0)
  end
  begin
     id 8 
     name rtibia
     direction -0.34202 -0.939693 0   
     length 6.8732   
     axis 0 0 -20   XYZ
    dof rx
    limits (-10.0 170.0)
 end
 begin
     id 9 
     name rfoot
     direction -0.173856 -0.477665 0.861168   
     length 1.54784  
     axis -90 -7.62852e-016 -20   XYZ
    dof rx rz
    limits (-45.0 90.0)
           (-20.0 70.0)
  end
  begin
     id 10 
     name rtoes
     direction -1.53562e-011 -4.21802e-011 1   
     length 0.759618   
     axis -90 -7.62852e-016 -20   XYZ
    dof rx
    limits (-90.0 20.0)
  end
  begin
     id 11 
     name lowerback
     direction -0.0278357 0.999497 -0.0151789   
     length 1.97203   
     axis 0 0 0   XYZ
    dof rx ry rz
    limits (-20.0 45.0)
           (-30.0 30.0)
           (-30.0 30.0)
  end
  begin
     id 12 
     name upperback
     direction -0.00360622 0.997542 0.0699804   
     length 1.94709   
     axis 0 0 0   XYZ
    dof rx ry rz
    limits (-20.0 45.0)
           (-30.0 30.0)
           (-30.0 30.0)
  end
  begin
     id 13 
     name thorax
     direction 0.00907706 0.997048 0.0762461   
     length 1.95722   
     axis 0 0 0   XYZ
    dof rx ry rz
    limits (-20.0 45.0)
           (-30.0 30.0)
           (-30.0 30.0)
  end
  begin
     id 14 
     name lowerneck
     direction -0.0481835 0.99872 -0.0153927   
     length 1.63078   
     axis 0 0 0   XYZ
    dof rx ry rz
    limits (-20.0 45.0)
           (-30.0 30.0)
           (-30.0 30.0)
  end
  begin
     id 15 
     name upperneck
     direction 0.0859716 0.979226 -0.183644   
     length 1.62591   
     axis 0 0 0   XYZ
    dof rx ry rz
    limits (-20.0 45.0)
           (-30.0 30.0)
           (-30.0 30.0)
  end
  begin
     id 16
     name head
     direction 0.0324821 0.997629 -0.0606773  
     length 1.64811  
     axis 0 0 0   XYZ
    dof rx ry rz
    limits (-20.0 45.0)
           (-30.0 30.0)
           (-30.0 30.0)
  end
  begin
     id 17 
     name lclavicle
     direction 0.939609 0.311019 0.142835  
     length 3.70647  
     axis 0 0 0   XYZ
    dof ry rz
    limits (-20.0 10.0)
           (0.0 20.0)
  end
  begin
     id 18 
     name lhumerus
     direction 1 -4.48963e-011 -1.59838e-027   
     length 4.59207   
     axis 180 -30 -90   XYZ
    dof rx ry rz
    limits (-60.0 90.0)
           (-90.0 90.0)
           (-90.0 90.0)
  end
  begin
     id 19
     name lradius
     direction 1 -4.48957e-011 -1.3483e-026   
     length 2.98109   
     axis 180 -30 -90   XYZ
    dof rx
    limits (-10.0 170.0)
  end
  begin
     id 20
     name lwrist
     direction 1 -4.48954e-011 -3.11579e-026   
     length 1.49055   
     axis 2.00652e-014 90 90   XYZ
    dof ry
    limits (-180.0 0.0)
 end
  begin
     id 21 
     name lhand
     direction 1 -4.4911e-011 -6.23158e-026   
     length 0.480203   
     axis 3.97628e-014 90 90   XYZ
    dof rx rz
    limits (-90.0 90.0)
           (-45.0 45.0)
  end
  begin
     id 22 
     name lfingers
     direction 1 -4.48893e-011 -1.24632e-025   
     length 0.387152   
     axis 7.95256e-014 90 90   XYZ
    dof rx
    limits (0.0 90.0)
  end
  begin
     id 23
     name lthumb
     direction 0.707107 -6.35013e-011 0.707107   
     length 0.555875   
     axis -90 45 2.85299e-015   XYZ
    dof rx rz
    limits (-45.0 45.0)
           (-45.0 45.0)
  end
  begin
     id 24 
     name rclavicle
     direction -0.950396 0.30392 0.0661859   
     length 3.70894  
     axis 0 0 0   XYZ 
    dof ry rz
    limits (-10.0 20.0)
           (-20.0 0.0)
  end
  begin
     id 25 
     name rhumerus
     direction -1 -4.48957e-011 -2.96677e-027  
     length 4.76508   
     axis 180 30 90   XYZ
    dof rx ry rz
    limits (-90.0 60.0)
           (-90.0 90.0)
           (-90.0 90.0)
  end
  begin
     id 26 
     name rradius
     direction -1 -4.48974e-011 -1.44501e-026   
     length 2.78902   
     axis 180 30 90   XYZ
    dof rx
    limits (-10.0 170.0)
  end
  begin
     id 27 
     name rwrist
     direction -1 -4.48978e-011 -3.11579e-026   
     length 1.39451   
     axis 2.00652e-014 -90 -90   XYZ
    dof ry
    limits (-180.0 0.0)
  end
  begin
     id 28
     name rhand
     direction -1 -4.48956e-011 -6.23158e-026   
     length 0.721303   
     axis 3.97628e-014 -90 -90   XYZ
    dof rx rz
    limits (-90.0 90.0)
           (-45.0 45.0)
  end
  begin
     id 29
     name rfingers
     direction -1 -4.4899e-011 -1.24632e-025   
     length 0.581533   
     axis 7.95256e-014 -90 -90   XYZ
    dof rx
    limits (0.0 90.0)
  end
  begin
     id 30
     name rthumb
     direction -0.707107 -6.34911e-011 0.707107   
     length 0.834968   
     axis -90 -45 -2.85299e-015   XYZ
    dof rx rz
    limits (-45.0 45.0)
           (-45.0 45.0)
  end
:hierarchy
  begin
    root lhipjoint rhipjoint lowerback
    lhipjoint lfemur
    lfemur ltibia
    ltibia lfoot
    lfoot ltoes
    rhipjoint rfemur
    rfemur rtibia
    rtibia rfoot
    rfoot rtoes
    lowerback upperback
    upperback thorax
    thorax lowerneck lclavicle rclavicle
    lowerneck upperneck
    upperneck head
    lclavicle lhumerus
    lhumerus lradius
    lradius lwrist
    lwrist lhand lthumb
    lhand lfingers
    rclavicle rhumerus
    rhumerus rradius
    rradius rwrist
    rwrist rhand rthumb
    rhand rfingers
  end

#!OML:ASF I:\salsa\salsa 7_09\Patient 1\Session 1\dancerfemale.ASF
:FULLY-SPECIFIED
:DEGREES
1
root 21.1485 15.7897 0.295582 -134.483 -84.8398 138.674
lowerback 4.40531 -0.14954 -0.622167
upperback -4.98777 -0.577718 -3.18836
thorax -7.73319 -0.398233 -2.9359
lowerneck -5.9051 -2.42757 -11.1286
upperneck 9.64969 -4.11569 16.2758
head 4.38676 -1.71061 6.72729
rclavicle 8.89561e-015 -7.15625e-015
rhumerus -41.0528 -29.2553 -81.0146
rradius 27.1105
rwrist 9.88018
rhand 8.34735 39.1706
rfingers 7.12502
rthumb 33.5572 12.2896
lclavicle 8.89561e-015 -7.15625e-015
lhumerus -45.1508 21.7535 78.4285
lradius 32.5148
lwrist -21.4577
lhand -23.9086 44.7568
lfingers 7.12502
lthumb 2.56562 74.7211
rfemur -29.9017 -4.28535 22.3272
rtibia 28.4024
rfoot -13.7823 -10.6927
rtoes -22.5559
lfemur -1.31299 8.83188 -31.9495
ltibia 21.1069
lfoot -30.7555 2.73554
ltoes 17.6969
2
root 21.0289 15.7863 0.28909 -142.878 -84.6421 147.182
lowerback 4.17794 -0.236008 -0.48094
upperback -5.16333 -0.657505 -2.8407
thorax -7.78812 -0.434832 -2.64057
lowerneck -6.09711 -2.24908 -11.3493
upperneck 9.89492 -3.83682 16.1391
head 4.45354 -1.57412 6.74222
rclavicle 1.83876e-015 1.27222e-014
rhumerus -41.0947 -28.8917 -80.9169
rradius 27.2994
rwrist 9.48588
rhand 8.08423 39.0894
rfingers 7.12502
rthumb 33.3071 12.1545
lclavicle 1.83876e-015 1.27222e-014
lhumerus -45.2874 21.6865 78.6737
lradius 32.7336
lwrist -21.1785
lhand -23.5598 44.5981
lfingers 7.12502
lthumb 2.90246 74.5581
rfemur -29.5702 -3.97934 22.9317
rtibia 28.4526
rfoot -14.1313 -10.3236
rtoes -23.5027
lfemur -1.0344 8.41656 -31.5573
ltibia 21.3238
lfoot -31.3263 3.70028
ltoes 16.868
3
root 20.9061 15.7852 0.283107 -151.298 -84.3293 155.683
lowerback 3.91276 -0.283122 -0.27599
upperback -5.27286 -0.674729 -2.47403
thorax -7.7472 -0.442171 -2.36787
lowerneck -6.196 -2.09002 -11.2441
upperneck 9.96018 -3.58557 15.8362
head 4.44671 -1.45394 6.63999
rclavicle -1.6201e-014 2.74323e-014
rhumerus -40.9922 -28.5198 -80.8653
rradius 27.4519
rwrist 9.00361
rhand 8.01627 38.9762
rfingers 7.12502
rthumb 33.2425 12.0275
lclavicle -1.6201e-014 2.74323e-014
lhumerus -45.2815 21.5963 79.0035
lradius 32.9017
lwrist -20.8638
lhand -23.4668 44.5226
lfingers 7.12502
lthumb 2.99232 74.4814
rfemur -29.1539 -3.83849 23.6256
rtibia 28.4355
rfoot -14.4542 -9.69346
rtoes -24.1699
lfemur -0.708554 7.87994 -31.145
ltibia 21.5471
lfoot -31.9364 4.86694
ltoes 15.9562
4
root 20.7871 15.7839 0.273856 -158.756 -83.9314 163.248
lowerback 3.73145 -0.280128 -0.106514
upperback -5.43893 -0.63294 -2.0967
thorax -7.81373 -0.420007 -2.07116
lowerneck -6.35994 -1.95332 -11.1864
upperneck 10.2334 -3.38188 15.5489
head 4.52192 -1.354 6.552
rclavicle 5.01931e-015 -2.22639e-014
rhumerus -40.996 -28.4014 -80.6136
rradius 27.5661
rwrist 8.60713
rhand 8.08566 38.8958
rfingers 7.12502
rthumb 33.3085 11.9612
lclavicle 5.01931e-015 -2.22639e-014
lhumerus -45.2512 21.4472 79.3718
lradius 33.0657
lwrist -20.4818
lhand -23.6221 44.8255
lfingers 7.12502
lthumb 2.84235 74.7863
rfemur -28.8053 -3.95709 24.4125
rtibia 28.4242
rfoot -14.6645 -8.78369
rtoes -25.2481
lfemur -0.408075 7.36834 -30.7073
ltibia 21.7715
lfoot -32.5209 5.97788
ltoes 15.1417
5
root 20.6719 15.7827 0.260325 -164.672 -83.4875 169.299
lowerback 3.6041 -0.316795 -0.0568964
upperback -5.66319 -0.654582 -1.66679
thorax -7.97533 -0.421913 -1.64526
lowerneck -6.52926 -1.76427 -11.1534
upperneck 10.6837 -3.11411 15.1987
head 4.64226 -1.22573 6.45535
rclavicle -2.22887e-014 -9.54166e-015
rhumerus -41.023 -28.1814 -80.2755
rradius 27.5193
rwrist 8.30657
rhand 8.07104 38.9731
rfingers 7.12502
rthumb 33.2946 12.0355
lclavicle -2.22887e-014 -9.54166e-015
lhumerus -45.2412 21.4848 79.6906
lradius 33.1939
lwrist -20.1757
lhand -23.7858 45.1
lfingers 7.12502
lthumb 2.68423 75.0628
rfemur -28.5041 -4.20825 25.1932
rtibia 28.3808
rfoot -14.9605 -7.93812
rtoes -25.1676
lfemur -0.1285 6.78408 -30.3064
ltibia 21.9889
lfoot -33.0344 7.02786
ltoes 14.4853
6
root 20.5538 15.7826 0.246201 -169.02 -82.9628 173.859
lowerback 3.30287 -0.336427 -0.0947494
upperback -5.87008 -0.659809 -1.23353
thorax -8.01508 -0.410484 -1.16896
lowerneck -6.6933 -1.57109 -11.1188
upperneck 11.0523 -2.82149 14.7994
head 4.73496 -1.08949 6.34285
rclavicle 4.82301e-014 8.34896e-015
rhumerus -40.9383 -27.8271 -79.9619
rradius 27.3778
rwrist 8.17248
rhand 7.9519 38.9548
rfingers 7.12502
rthumb 33.1813 11.993
lclavicle 4.82301e-014 8.34896e-015
lhumerus -45.1381 21.5677 80.0581
lradius 33.2763
lwrist -19.8999
lhand -23.9764 45.1875
lfingers 7.12502
lthumb 2.50012 75.1526
rfemur -28.2614 -4.37609 25.8565
rtibia 28.3132
rfoot -15.2823 -7.20201
rtoes -24.7036
lfemur 0.0939867 5.95763 -30.0622
ltibia 22.1924
lfoot -33.5028 8.22698
ltoes 13.4998
7
root 20.4289 15.7842 0.228906 -172.414 -82.4915 177.424
lowerback 2.88586 -0.29305 -0.195268
upperback -6.02702 -0.587225 -0.843935
thorax -7.93235 -0.358248 -0.712318
lowerneck -6.72726 -1.45193 -11.0709
upperneck 11.2897 -2.63797 14.4613
head 4.78273 -1.01085 6.23902
rclavicle -1.55797e-014 2.98177e-015
rhumerus -40.893 -27.751 -79.5087
rradius 27.2284
rwrist 8.34866
rhand 7.84783 38.923
rfingers 7.12502
rthumb 33.0823 11.9402
lclavicle -1.55797e-014 2.98177e-015
lhumerus -44.9521 21.4221 80.5162
lradius 33.4452
lwrist -19.5738
lhand -24.0849 45.178
lfingers 7.12502
lthumb 2.39536 75.1443
rfemur -27.9058 -4.47286 26.4302
rtibia 28.2169
rfoot -15.6194 -6.59204
rtoes -24.9234
lfemur 0.384068 5.11166 -29.8392
ltibia 22.4264
lfoot -33.9008 9.3625
ltoes 11.9481
8
root 20.3006 15.788 0.206113 -175.411 -82.1206 180.451
lowerback 2.57932 -0.287233 -0.369393
upperback -6.16141 -0.568251 -0.427242
thorax -7.89119 -0.326465 -0.180587
lowerneck -6.74265 -1.32979 -11.0665
upperneck 11.6292 -2.45992 14.1366
head 4.86017 -0.937568 6.14902
rclavicle -5.59082e-015 2.5842e-015
rhumerus -40.9208 -27.7868 -78.9404
rradius 27.0886
rwrist 8.68012
rhand 7.89434 39.0473
rfingers 7.12502
rthumb 33.1266 12.0739
lclavicle -5.59082e-015 2.5842e-015
lhumerus -44.8059 21.3167 80.946
lradius 33.6645
lwrist -19.2372
lhand -24.233 45.0926
lfingers 7.12502
lthumb 2.25238 75.0605
rfemur -27.3462 -4.57271 26.9578
rtibia 28.1041
rfoot -15.9201 -6.07451
rtoes -25.4426
lfemur 0.837936 4.15564 -29.5925
ltibia 22.7269
lfoot -34.2355 10.4614
ltoes 10.2607
9
root 20.1754 15.7913 0.182262 -177.686 -81.6449 182.766
lowerback 2.29343 -0.268576 -0.615751
upperback -6.28119 -0.536925 -0.00911042
thorax -7.84716 -0.284216 0.391755
lowerneck -6.95562 -1.21495 -11.1079
upperneck 12.1336 -2.29008 13.8594
head 5.02482 -0.861286 6.08646
rclavicle 2.2239e-015 -5.66536e-015
rhumerus -40.8825 -27.8887 -78.3694
rradius 26.929
rwrist 8.93003
rhand 8.01392 39.2087
rfingers 7.12502
rthumb 33.2403 12.2595
lclavicle 2.2239e-015 -5.66536e-015
lhumerus -44.5477 21.2387 81.4018
lradius 33.8398
lwrist -18.7614
lhand -24.5537 45.0211
lfingers 7.12502
lthumb 1.94262 74.992
rfemur -26.8156 -4.64596 27.4164
rtibia 27.9903
rfoot -16.0805 -5.40458
rtoes -25.5343
lfemur 1.22233 3.05772 -29.4552
ltibia 23.1281
lfoot -34.5954 11.6043
ltoes 8.71433
10
root 20.0534 15.7925 0.158049 -179.359 -81.046 184.504
lowerback 1.98243 -0.201201 -0.925271
upperback -6.37485 -0.443615 0.404949
thorax -7.76318 -0.207998 0.989424
lowerneck -7.21428 -1.1061 -11.0503
upperneck 12.5877 -2.11372 13.4862
head 5.18123 -0.782513 5.9751
rclavicle 1.54741e-014 1.3418e-015
rhumerus -40.7436 -28.0633 -77.8075
rradius 26.7069
rwrist 9.04435
rhand 7.88222 39.1964
rfingers 7.12502
rthumb 33.115 12.2206
lclavicle 1.54741e-014 1.3418e-015
lhumerus -44.2655 21.1252 81.9
lradius 34.1777
lwrist -18.1628
lhand -24.8016 45.1599
lfingers 7.12502
lthumb 1.70322 75.1328
rfemur -26.3405 -4.83457 27.8629
rtibia 27.8906
rfoot -16.3074 -4.54462
rtoes -25.4894
lfemur 1.44428 2.52431 -29.2583
ltibia 23.7036
lfoot -34.8375 12.1903
ltoes 7.44199
11
root 19.9322 15.7933 0.131121 -180.646 -80.4545 185.877
lowerback 1.61627 -0.148098 -1.27465
upperback -6.46191 -0.370388 0.840112
thorax -7.64268 -0.139553 1.63348
lowerneck -7.34379 -0.967204 -10.9754
upperneck 12.9021 -1.88064 13.0284
head 5.26624 -0.685974 5.83351
rclavicle -1.63066e-015 8.94531e-016
rhumerus -40.51 -28.1795 -77.2958
rradius 26.449
rwrist 9.02385
rhand 7.58585 39.0584
rfingers 7.12502
rthumb 32.8332 12.0231
lclavicle -1.63066e-015 8.94531e-016
lhumerus -43.9409 21.0525 82.3533
lradius 34.4555
lwrist -17.7479
lhand -24.648 45.146
lfingers 7.12502
lthumb 1.85156 75.1177
rfemur -25.8929 -5.21094 28.3156
rtibia 27.8181
rfoot -16.9184 -3.73901
rtoes -25.0317
lfemur 1.5024 2.71649 -28.9004
ltibia 24.4791
lfoot -34.8127 12.0885
ltoes 5.92117
12
root 19.8156 15.7959 0.100705 -181.351 -79.9691 186.815
lowerback 1.10051 -0.114726 -1.69934
upperback -6.56483 -0.32967 1.24357
thorax -7.45418 -0.0860589 2.28883
lowerneck -7.38851 -0.867286 -10.9883
upperneck 13.0661 -1.70782 12.7407
head 5.30097 -0.617074 5.75598
rclavicle 4.5472e-015 -1.40143e-014
rhumerus -40.2247 -28.4394 -76.839
rradius 26.1913
rwrist 8.98809
rhand 7.34483 39.0521
rfingers 7.12502
rthumb 32.6039 11.9692
lclavicle 4.5472e-015 -1.40143e-014
lhumerus -43.3941 20.8276 82.8176
lradius 34.5124
lwrist -17.4935
lhand -24.2951 45.0241
lfingers 7.12502
lthumb 2.1924 74.9925
rfemur -25.6252 -5.64751 28.7157
rtibia 27.7728
rfoot -17.6379 -3.02944
rtoes -22.5462
lfemur 1.2601 3.36902 -28.4454
ltibia 25.4057
lfoot -34.5094 11.5106
ltoes 3.6223
